<svg version="1.0" xmlns="http://www.w3.org/2000/svg"
 width="512.000000pt" height="512.000000pt" viewBox="0 0 512.000000 512.000000"
 preserveAspectRatio="xMidYMid meet">

<g transform="translate(0.000000,512.000000) scale(0.100000,-0.100000)"
fill="#000000" stroke="none">
<path d="M388 5099 c-23 -12 -46 -35 -58 -59 -20 -38 -20 -57 -20 -975 0 -847
2 -939 16 -968 9 -18 62 -78 117 -134 l101 -103 -101 -102 c-55 -57 -108 -117
-117 -135 -15 -29 -16 -144 -16 -1268 0 -1219 0 -1236 20 -1275 13 -26 34 -47
60 -60 39 -20 54 -20 2170 -20 2116 0 2131 0 2170 20 26 13 47 34 60 60 19 38
20 58 20 525 0 430 -2 490 -16 518 -9 18 -62 78 -117 134 l-101 103 101 102
c55 57 108 117 117 135 15 29 16 177 16 1718 0 1670 0 1686 -20 1725 -13 26
-34 47 -60 60 -39 20 -54 20 -2172 20 -2104 -1 -2134 -1 -2170 -21z m4122
-1827 l0 -1547 -121 -120 c-237 -234 -237 -256 0 -490 l121 -120 0 -347 0
-348 -1950 0 -1950 0 0 1098 0 1097 121 120 c237 234 237 256 0 490 l-121 120
0 797 0 798 1950 0 1950 0 0 -1548z"/>
<path d="M1288 4499 c-23 -12 -46 -35 -58 -59 -20 -39 -20 -57 -20 -1275 0
-1219 0 -1236 20 -1275 13 -26 34 -47 60 -60 39 -20 56 -20 1270 -20 1214 0
1231 0 1270 20 26 13 47 34 60 60 20 39 20 56 20 1275 0 1219 0 1236 -20 1275
-13 26 -34 47 -60 60 -39 20 -56 20 -1272 20 -1208 -1 -1234 -1 -1270 -21z
m2322 -1334 c0 -580 -3 -1055 -7 -1055 -5 0 -20 38 -34 83 -15 45 -44 111 -64
146 -71 121 -217 251 -342 306 l-42 18 24 29 c45 53 96 151 128 243 28 82 31
101 31 220 0 136 -7 176 -51 285 -90 220 -289 392 -523 451 -31 8 -105 14
-170 14 -123 0 -188 -12 -285 -53 -218 -93 -380 -282 -447 -522 -7 -26 -12
-101 -12 -175 0 -119 3 -138 31 -220 32 -92 83 -190 128 -243 l24 -29 -42 -18
c-125 -55 -271 -185 -342 -306 -20 -35 -49 -101 -64 -146 -14 -45 -29 -83 -33
-83 -5 0 -8 475 -8 1055 l0 1055 1050 0 1050 0 0 -1055z m-969 435 c188 -36
332 -187 362 -380 25 -166 -54 -339 -202 -440 -69 -48 -91 -90 -91 -179 0 -91
24 -142 80 -171 21 -11 55 -20 74 -20 149 0 315 -99 384 -228 18 -33 32 -63
32 -66 0 -3 -324 -6 -720 -6 -396 0 -720 3 -720 6 0 3 14 33 32 66 69 129 235
228 384 228 19 0 53 9 74 20 56 29 80 80 80 171 0 89 -22 131 -91 179 -148
101 -227 274 -202 440 40 256 275 427 524 380z"/>
<path d="M1288 1489 c-43 -22 -78 -81 -78 -129 0 -50 35 -107 80 -130 39 -20
56 -20 1270 -20 1214 0 1231 0 1270 20 45 23 80 80 80 130 0 50 -35 107 -80
130 -39 20 -56 20 -1272 20 -1208 -1 -1234 -1 -1270 -21z"/>
<path d="M1588 889 c-43 -22 -78 -81 -78 -129 0 -50 35 -107 80 -130 38 -20
57 -20 970 -20 913 0 932 0 970 20 45 23 80 80 80 130 0 50 -35 107 -80 130
-38 20 -56 20 -972 20 -909 -1 -934 -1 -970 -21z"/>
</g>
</svg>
